<mxfile host="app.diagrams.net" modified="2023-02-13T15:26:18.244Z" agent="5.0 (Macintosh; Intel Mac OS X 10_15_7) AppleWebKit/537.36 (KHTML, like Gecko) Chrome/109.0.0.0 Safari/537.36" etag="tJYBcHZJajXODbWx38gZ" version="19.0.0" type="github">
  <diagram id="_EWSLFI9hJHqvTnJSME5" name="Page-1">
    <mxGraphModel dx="946" dy="614" grid="1" gridSize="10" guides="1" tooltips="1" connect="1" arrows="1" fold="1" page="1" pageScale="1" pageWidth="850" pageHeight="1100" math="0" shadow="0">
      <root>
        <mxCell id="0" />
        <mxCell id="1" parent="0" />
        <mxCell id="w3lT0G3AqvzyWayd9pQj-1" value="Start" style="rounded=1;whiteSpace=wrap;html=1;fontSize=18;" vertex="1" parent="1">
          <mxGeometry x="320" y="40" width="90" height="40" as="geometry" />
        </mxCell>
        <mxCell id="w3lT0G3AqvzyWayd9pQj-2" value="" style="endArrow=none;html=1;rounded=0;fontSize=18;" edge="1" parent="1">
          <mxGeometry width="50" height="50" relative="1" as="geometry">
            <mxPoint x="50" y="100" as="sourcePoint" />
            <mxPoint x="360" y="100" as="targetPoint" />
          </mxGeometry>
        </mxCell>
        <mxCell id="w3lT0G3AqvzyWayd9pQj-3" value="" style="endArrow=classic;html=1;rounded=0;fontSize=18;" edge="1" parent="1">
          <mxGeometry width="50" height="50" relative="1" as="geometry">
            <mxPoint x="50" y="100" as="sourcePoint" />
            <mxPoint x="50" y="140" as="targetPoint" />
          </mxGeometry>
        </mxCell>
        <mxCell id="w3lT0G3AqvzyWayd9pQj-4" value="User" style="rounded=0;whiteSpace=wrap;html=1;fontSize=18;" vertex="1" parent="1">
          <mxGeometry x="10" y="140" width="80" height="40" as="geometry" />
        </mxCell>
        <mxCell id="w3lT0G3AqvzyWayd9pQj-5" value="" style="edgeStyle=orthogonalEdgeStyle;rounded=0;orthogonalLoop=1;jettySize=auto;html=1;fontSize=18;" edge="1" parent="1" source="w3lT0G3AqvzyWayd9pQj-6" target="w3lT0G3AqvzyWayd9pQj-10">
          <mxGeometry relative="1" as="geometry" />
        </mxCell>
        <mxCell id="w3lT0G3AqvzyWayd9pQj-6" value="Admin" style="rounded=0;whiteSpace=wrap;html=1;fontSize=18;" vertex="1" parent="1">
          <mxGeometry x="320" y="140" width="80" height="40" as="geometry" />
        </mxCell>
        <mxCell id="w3lT0G3AqvzyWayd9pQj-7" value="" style="endArrow=classic;html=1;rounded=0;fontSize=18;exitX=0.5;exitY=1;exitDx=0;exitDy=0;" edge="1" parent="1" source="w3lT0G3AqvzyWayd9pQj-4">
          <mxGeometry width="50" height="50" relative="1" as="geometry">
            <mxPoint x="30" y="230" as="sourcePoint" />
            <mxPoint x="50" y="220" as="targetPoint" />
          </mxGeometry>
        </mxCell>
        <mxCell id="w3lT0G3AqvzyWayd9pQj-8" value="" style="endArrow=classic;html=1;rounded=0;fontSize=18;exitX=0.5;exitY=1;exitDx=0;exitDy=0;" edge="1" parent="1">
          <mxGeometry width="50" height="50" relative="1" as="geometry">
            <mxPoint x="359.5999999999999" y="180" as="sourcePoint" />
            <mxPoint x="359.5999999999999" y="220" as="targetPoint" />
          </mxGeometry>
        </mxCell>
        <mxCell id="w3lT0G3AqvzyWayd9pQj-9" value="Login" style="rhombus;whiteSpace=wrap;html=1;fontSize=18;" vertex="1" parent="1">
          <mxGeometry x="10" y="220" width="80" height="80" as="geometry" />
        </mxCell>
        <mxCell id="w3lT0G3AqvzyWayd9pQj-10" value="Login" style="rhombus;whiteSpace=wrap;html=1;fontSize=18;" vertex="1" parent="1">
          <mxGeometry x="290" y="220" width="140" height="80" as="geometry" />
        </mxCell>
        <mxCell id="w3lT0G3AqvzyWayd9pQj-11" value="Register" style="rhombus;whiteSpace=wrap;html=1;fontSize=18;" vertex="1" parent="1">
          <mxGeometry x="160" y="220" width="100" height="80" as="geometry" />
        </mxCell>
        <mxCell id="w3lT0G3AqvzyWayd9pQj-12" value="" style="endArrow=none;html=1;rounded=0;fontSize=18;" edge="1" parent="1">
          <mxGeometry width="50" height="50" relative="1" as="geometry">
            <mxPoint x="50" y="200" as="sourcePoint" />
            <mxPoint x="260" y="200" as="targetPoint" />
          </mxGeometry>
        </mxCell>
        <mxCell id="w3lT0G3AqvzyWayd9pQj-13" value="" style="endArrow=none;html=1;rounded=0;fontSize=18;exitX=1;exitY=0.5;exitDx=0;exitDy=0;" edge="1" parent="1" source="w3lT0G3AqvzyWayd9pQj-11">
          <mxGeometry width="50" height="50" relative="1" as="geometry">
            <mxPoint x="240" y="250" as="sourcePoint" />
            <mxPoint x="260" y="200" as="targetPoint" />
          </mxGeometry>
        </mxCell>
        <mxCell id="w3lT0G3AqvzyWayd9pQj-14" value="" style="endArrow=none;html=1;rounded=0;fontSize=18;exitX=1;exitY=0.5;exitDx=0;exitDy=0;" edge="1" parent="1" source="w3lT0G3AqvzyWayd9pQj-9" target="w3lT0G3AqvzyWayd9pQj-11">
          <mxGeometry width="50" height="50" relative="1" as="geometry">
            <mxPoint x="100" y="310" as="sourcePoint" />
            <mxPoint x="150" y="260" as="targetPoint" />
          </mxGeometry>
        </mxCell>
        <mxCell id="w3lT0G3AqvzyWayd9pQj-15" value="No" style="text;html=1;align=center;verticalAlign=middle;resizable=0;points=[];autosize=1;strokeColor=none;fillColor=none;fontSize=18;" vertex="1" parent="1">
          <mxGeometry x="100" y="215" width="40" height="30" as="geometry" />
        </mxCell>
        <mxCell id="w3lT0G3AqvzyWayd9pQj-16" value="" style="endArrow=none;html=1;rounded=0;fontSize=18;entryX=0.5;entryY=1;entryDx=0;entryDy=0;" edge="1" parent="1" target="w3lT0G3AqvzyWayd9pQj-9">
          <mxGeometry width="50" height="50" relative="1" as="geometry">
            <mxPoint x="50" y="960" as="sourcePoint" />
            <mxPoint x="60" y="290" as="targetPoint" />
          </mxGeometry>
        </mxCell>
        <mxCell id="w3lT0G3AqvzyWayd9pQj-17" value="" style="endArrow=classic;html=1;rounded=0;fontSize=18;" edge="1" parent="1">
          <mxGeometry width="50" height="50" relative="1" as="geometry">
            <mxPoint x="50" y="380" as="sourcePoint" />
            <mxPoint x="130" y="380" as="targetPoint" />
          </mxGeometry>
        </mxCell>
        <mxCell id="w3lT0G3AqvzyWayd9pQj-18" value="" style="endArrow=classic;html=1;rounded=0;fontSize=18;" edge="1" parent="1">
          <mxGeometry width="50" height="50" relative="1" as="geometry">
            <mxPoint x="50.000000000000114" y="460" as="sourcePoint" />
            <mxPoint x="130" y="460" as="targetPoint" />
          </mxGeometry>
        </mxCell>
        <mxCell id="w3lT0G3AqvzyWayd9pQj-19" value="" style="endArrow=classic;html=1;rounded=0;fontSize=18;" edge="1" parent="1">
          <mxGeometry width="50" height="50" relative="1" as="geometry">
            <mxPoint x="50.000000000000114" y="540" as="sourcePoint" />
            <mxPoint x="130" y="540" as="targetPoint" />
          </mxGeometry>
        </mxCell>
        <mxCell id="w3lT0G3AqvzyWayd9pQj-20" value="&lt;font style=&quot;font-size: 16px;&quot;&gt;Add Category&lt;/font&gt;" style="rounded=0;whiteSpace=wrap;html=1;fontSize=18;" vertex="1" parent="1">
          <mxGeometry x="440" y="360" width="120" height="40" as="geometry" />
        </mxCell>
        <mxCell id="w3lT0G3AqvzyWayd9pQj-21" value="&lt;font style=&quot;font-size: 16px;&quot;&gt;View Product&lt;/font&gt;" style="rounded=0;whiteSpace=wrap;html=1;fontSize=18;" vertex="1" parent="1">
          <mxGeometry x="130" y="440" width="120" height="40" as="geometry" />
        </mxCell>
        <mxCell id="w3lT0G3AqvzyWayd9pQj-22" value="&lt;font style=&quot;font-size: 16px;&quot;&gt;But Product and Add to Cart&lt;/font&gt;" style="rounded=0;whiteSpace=wrap;html=1;fontSize=18;" vertex="1" parent="1">
          <mxGeometry x="130" y="520" width="120" height="40" as="geometry" />
        </mxCell>
        <mxCell id="w3lT0G3AqvzyWayd9pQj-23" value="Payment" style="rhombus;whiteSpace=wrap;html=1;fontSize=16;" vertex="1" parent="1">
          <mxGeometry x="160" y="620" width="100" height="60" as="geometry" />
        </mxCell>
        <mxCell id="w3lT0G3AqvzyWayd9pQj-24" value="" style="endArrow=classic;html=1;rounded=0;fontSize=16;entryX=0.5;entryY=0;entryDx=0;entryDy=0;" edge="1" parent="1" target="w3lT0G3AqvzyWayd9pQj-23">
          <mxGeometry width="50" height="50" relative="1" as="geometry">
            <mxPoint x="210" y="560" as="sourcePoint" />
            <mxPoint x="240" y="570" as="targetPoint" />
          </mxGeometry>
        </mxCell>
        <mxCell id="w3lT0G3AqvzyWayd9pQj-25" value="Yes" style="text;html=1;align=center;verticalAlign=middle;resizable=0;points=[];autosize=1;strokeColor=none;fillColor=none;fontSize=16;" vertex="1" parent="1">
          <mxGeometry x="70" y="330" width="40" height="20" as="geometry" />
        </mxCell>
        <mxCell id="w3lT0G3AqvzyWayd9pQj-26" value="" style="endArrow=classic;html=1;rounded=0;fontSize=16;" edge="1" parent="1">
          <mxGeometry width="50" height="50" relative="1" as="geometry">
            <mxPoint x="290" y="540" as="sourcePoint" />
            <mxPoint x="250.71067811865487" y="539.7" as="targetPoint" />
          </mxGeometry>
        </mxCell>
        <mxCell id="w3lT0G3AqvzyWayd9pQj-27" value="" style="endArrow=none;html=1;rounded=0;fontSize=16;" edge="1" parent="1">
          <mxGeometry width="50" height="50" relative="1" as="geometry">
            <mxPoint x="290" y="650" as="sourcePoint" />
            <mxPoint x="290" y="540" as="targetPoint" />
          </mxGeometry>
        </mxCell>
        <mxCell id="w3lT0G3AqvzyWayd9pQj-28" value="" style="endArrow=none;html=1;rounded=0;fontSize=16;exitX=1;exitY=0.5;exitDx=0;exitDy=0;" edge="1" parent="1" source="w3lT0G3AqvzyWayd9pQj-23">
          <mxGeometry width="50" height="50" relative="1" as="geometry">
            <mxPoint x="250" y="680" as="sourcePoint" />
            <mxPoint x="290" y="650" as="targetPoint" />
          </mxGeometry>
        </mxCell>
        <mxCell id="w3lT0G3AqvzyWayd9pQj-29" value="No" style="text;html=1;align=center;verticalAlign=middle;resizable=0;points=[];autosize=1;strokeColor=none;fillColor=none;fontSize=16;" vertex="1" parent="1">
          <mxGeometry x="240" y="590" width="40" height="20" as="geometry" />
        </mxCell>
        <mxCell id="w3lT0G3AqvzyWayd9pQj-30" value="" style="endArrow=none;html=1;rounded=0;fontSize=16;entryX=0.5;entryY=1;entryDx=0;entryDy=0;" edge="1" parent="1" target="w3lT0G3AqvzyWayd9pQj-23">
          <mxGeometry width="50" height="50" relative="1" as="geometry">
            <mxPoint x="210" y="710" as="sourcePoint" />
            <mxPoint x="240" y="680" as="targetPoint" />
          </mxGeometry>
        </mxCell>
        <mxCell id="w3lT0G3AqvzyWayd9pQj-31" value="" style="endArrow=none;html=1;rounded=0;fontSize=16;" edge="1" parent="1">
          <mxGeometry width="50" height="50" relative="1" as="geometry">
            <mxPoint x="90" y="710" as="sourcePoint" />
            <mxPoint x="290" y="710" as="targetPoint" />
            <Array as="points">
              <mxPoint x="210" y="710" />
            </Array>
          </mxGeometry>
        </mxCell>
        <mxCell id="w3lT0G3AqvzyWayd9pQj-32" value="" style="endArrow=classic;html=1;rounded=0;fontSize=16;" edge="1" parent="1">
          <mxGeometry width="50" height="50" relative="1" as="geometry">
            <mxPoint x="90" y="710" as="sourcePoint" />
            <mxPoint x="90" y="740" as="targetPoint" />
          </mxGeometry>
        </mxCell>
        <mxCell id="w3lT0G3AqvzyWayd9pQj-33" value="" style="endArrow=classic;html=1;rounded=0;fontSize=16;" edge="1" parent="1">
          <mxGeometry width="50" height="50" relative="1" as="geometry">
            <mxPoint x="289.3899999999999" y="710" as="sourcePoint" />
            <mxPoint x="289.3899999999999" y="740" as="targetPoint" />
          </mxGeometry>
        </mxCell>
        <mxCell id="w3lT0G3AqvzyWayd9pQj-34" value="Online Pay" style="rounded=0;whiteSpace=wrap;html=1;fontSize=16;" vertex="1" parent="1">
          <mxGeometry x="70" y="740" width="100" height="40" as="geometry" />
        </mxCell>
        <mxCell id="w3lT0G3AqvzyWayd9pQj-35" value="&lt;font style=&quot;font-size: 12px;&quot;&gt;Cash on Delivery&lt;/font&gt;" style="rounded=0;whiteSpace=wrap;html=1;fontSize=16;" vertex="1" parent="1">
          <mxGeometry x="210" y="740" width="100" height="40" as="geometry" />
        </mxCell>
        <mxCell id="w3lT0G3AqvzyWayd9pQj-36" value="" style="endArrow=classic;html=1;rounded=0;fontSize=18;" edge="1" parent="1">
          <mxGeometry width="50" height="50" relative="1" as="geometry">
            <mxPoint x="49.99999999999977" y="840" as="sourcePoint" />
            <mxPoint x="90" y="840" as="targetPoint" />
          </mxGeometry>
        </mxCell>
        <mxCell id="w3lT0G3AqvzyWayd9pQj-37" value="&lt;font style=&quot;font-size: 18px;&quot;&gt;Order Placed&lt;/font&gt;" style="rounded=0;whiteSpace=wrap;html=1;fontSize=12;" vertex="1" parent="1">
          <mxGeometry x="90" y="820" width="200" height="40" as="geometry" />
        </mxCell>
        <mxCell id="w3lT0G3AqvzyWayd9pQj-38" value="" style="endArrow=classic;html=1;rounded=0;fontSize=16;" edge="1" parent="1">
          <mxGeometry width="50" height="50" relative="1" as="geometry">
            <mxPoint x="129.5" y="780" as="sourcePoint" />
            <mxPoint x="130" y="820" as="targetPoint" />
          </mxGeometry>
        </mxCell>
        <mxCell id="w3lT0G3AqvzyWayd9pQj-39" value="" style="endArrow=classic;html=1;rounded=0;fontSize=16;" edge="1" parent="1">
          <mxGeometry width="50" height="50" relative="1" as="geometry">
            <mxPoint x="250" y="780" as="sourcePoint" />
            <mxPoint x="250.5" y="820" as="targetPoint" />
          </mxGeometry>
        </mxCell>
        <mxCell id="w3lT0G3AqvzyWayd9pQj-40" value="" style="endArrow=classic;html=1;rounded=0;fontSize=18;exitX=0.5;exitY=1;exitDx=0;exitDy=0;entryX=0.5;entryY=0;entryDx=0;entryDy=0;" edge="1" parent="1" target="w3lT0G3AqvzyWayd9pQj-6">
          <mxGeometry width="50" height="50" relative="1" as="geometry">
            <mxPoint x="359.5999999999999" y="80" as="sourcePoint" />
            <mxPoint x="359.5999999999999" y="120" as="targetPoint" />
          </mxGeometry>
        </mxCell>
        <mxCell id="w3lT0G3AqvzyWayd9pQj-41" value="" style="endArrow=none;html=1;rounded=0;fontSize=18;entryX=0.5;entryY=1;entryDx=0;entryDy=0;" edge="1" parent="1">
          <mxGeometry width="50" height="50" relative="1" as="geometry">
            <mxPoint x="360" y="960" as="sourcePoint" />
            <mxPoint x="359.5999999999999" y="300" as="targetPoint" />
          </mxGeometry>
        </mxCell>
        <mxCell id="w3lT0G3AqvzyWayd9pQj-42" value="" style="endArrow=classic;html=1;rounded=0;fontSize=18;" edge="1" parent="1">
          <mxGeometry width="50" height="50" relative="1" as="geometry">
            <mxPoint x="360" y="379.6" as="sourcePoint" />
            <mxPoint x="440" y="379.6" as="targetPoint" />
          </mxGeometry>
        </mxCell>
        <mxCell id="w3lT0G3AqvzyWayd9pQj-43" value="" style="endArrow=classic;html=1;rounded=0;fontSize=18;" edge="1" parent="1">
          <mxGeometry width="50" height="50" relative="1" as="geometry">
            <mxPoint x="360" y="459.5999999999999" as="sourcePoint" />
            <mxPoint x="439.9999999999998" y="459.5999999999999" as="targetPoint" />
          </mxGeometry>
        </mxCell>
        <mxCell id="w3lT0G3AqvzyWayd9pQj-44" value="" style="endArrow=classic;html=1;rounded=0;fontSize=18;" edge="1" parent="1">
          <mxGeometry width="50" height="50" relative="1" as="geometry">
            <mxPoint x="360" y="539.5999999999999" as="sourcePoint" />
            <mxPoint x="439.9999999999998" y="539.5999999999999" as="targetPoint" />
          </mxGeometry>
        </mxCell>
        <mxCell id="w3lT0G3AqvzyWayd9pQj-45" value="" style="endArrow=classic;html=1;rounded=0;fontSize=18;" edge="1" parent="1">
          <mxGeometry width="50" height="50" relative="1" as="geometry">
            <mxPoint x="360" y="610" as="sourcePoint" />
            <mxPoint x="439.9999999999998" y="610" as="targetPoint" />
          </mxGeometry>
        </mxCell>
        <mxCell id="w3lT0G3AqvzyWayd9pQj-46" value="" style="endArrow=classic;html=1;rounded=0;fontSize=18;" edge="1" parent="1">
          <mxGeometry width="50" height="50" relative="1" as="geometry">
            <mxPoint x="360" y="690" as="sourcePoint" />
            <mxPoint x="439.9999999999998" y="690" as="targetPoint" />
          </mxGeometry>
        </mxCell>
        <mxCell id="w3lT0G3AqvzyWayd9pQj-47" value="&lt;font style=&quot;font-size: 16px;&quot;&gt;Add Product&lt;/font&gt;" style="rounded=0;whiteSpace=wrap;html=1;fontSize=18;" vertex="1" parent="1">
          <mxGeometry x="440" y="440" width="120" height="40" as="geometry" />
        </mxCell>
        <mxCell id="w3lT0G3AqvzyWayd9pQj-48" value="&lt;font style=&quot;font-size: 16px;&quot;&gt;Manage Order&lt;/font&gt;" style="rounded=0;whiteSpace=wrap;html=1;fontSize=18;" vertex="1" parent="1">
          <mxGeometry x="440" y="520" width="120" height="40" as="geometry" />
        </mxCell>
        <mxCell id="w3lT0G3AqvzyWayd9pQj-49" value="&lt;font style=&quot;font-size: 14px;&quot;&gt;Manage Payment&lt;/font&gt;" style="rounded=0;whiteSpace=wrap;html=1;fontSize=18;" vertex="1" parent="1">
          <mxGeometry x="440" y="590" width="120" height="40" as="geometry" />
        </mxCell>
        <mxCell id="w3lT0G3AqvzyWayd9pQj-50" value="&lt;font style=&quot;font-size: 15px;&quot;&gt;Check Feedback&lt;/font&gt;" style="rounded=0;whiteSpace=wrap;html=1;fontSize=18;" vertex="1" parent="1">
          <mxGeometry x="440" y="670" width="120" height="40" as="geometry" />
        </mxCell>
        <mxCell id="w3lT0G3AqvzyWayd9pQj-51" value="" style="endArrow=none;html=1;rounded=0;fontSize=18;" edge="1" parent="1">
          <mxGeometry width="50" height="50" relative="1" as="geometry">
            <mxPoint x="600" y="760" as="sourcePoint" />
            <mxPoint x="600" y="380" as="targetPoint" />
          </mxGeometry>
        </mxCell>
        <mxCell id="w3lT0G3AqvzyWayd9pQj-52" value="" style="endArrow=none;html=1;rounded=0;fontSize=18;entryX=1;entryY=0.5;entryDx=0;entryDy=0;" edge="1" parent="1" target="w3lT0G3AqvzyWayd9pQj-20">
          <mxGeometry width="50" height="50" relative="1" as="geometry">
            <mxPoint x="600" y="380" as="sourcePoint" />
            <mxPoint x="590" y="320" as="targetPoint" />
          </mxGeometry>
        </mxCell>
        <mxCell id="w3lT0G3AqvzyWayd9pQj-53" value="" style="endArrow=none;html=1;rounded=0;fontSize=18;entryX=1;entryY=0.5;entryDx=0;entryDy=0;" edge="1" parent="1">
          <mxGeometry width="50" height="50" relative="1" as="geometry">
            <mxPoint x="600" y="459.5999999999999" as="sourcePoint" />
            <mxPoint x="560" y="459.5999999999999" as="targetPoint" />
          </mxGeometry>
        </mxCell>
        <mxCell id="w3lT0G3AqvzyWayd9pQj-54" value="" style="endArrow=none;html=1;rounded=0;fontSize=18;entryX=1;entryY=0.5;entryDx=0;entryDy=0;" edge="1" parent="1">
          <mxGeometry width="50" height="50" relative="1" as="geometry">
            <mxPoint x="600" y="539.5999999999999" as="sourcePoint" />
            <mxPoint x="560" y="539.5999999999999" as="targetPoint" />
          </mxGeometry>
        </mxCell>
        <mxCell id="w3lT0G3AqvzyWayd9pQj-55" value="" style="endArrow=none;html=1;rounded=0;fontSize=18;entryX=1;entryY=0.5;entryDx=0;entryDy=0;" edge="1" parent="1">
          <mxGeometry width="50" height="50" relative="1" as="geometry">
            <mxPoint x="600" y="609.5999999999999" as="sourcePoint" />
            <mxPoint x="560" y="609.5999999999999" as="targetPoint" />
          </mxGeometry>
        </mxCell>
        <mxCell id="w3lT0G3AqvzyWayd9pQj-56" value="" style="endArrow=none;html=1;rounded=0;fontSize=18;entryX=1;entryY=0.5;entryDx=0;entryDy=0;" edge="1" parent="1">
          <mxGeometry width="50" height="50" relative="1" as="geometry">
            <mxPoint x="600" y="689.5999999999999" as="sourcePoint" />
            <mxPoint x="560" y="689.5999999999999" as="targetPoint" />
          </mxGeometry>
        </mxCell>
        <mxCell id="w3lT0G3AqvzyWayd9pQj-57" value="Reports" style="shape=document;whiteSpace=wrap;html=1;boundedLbl=1;fontSize=15;" vertex="1" parent="1">
          <mxGeometry x="560" y="760" width="80" height="60" as="geometry" />
        </mxCell>
        <mxCell id="w3lT0G3AqvzyWayd9pQj-58" value="" style="endArrow=classic;html=1;rounded=0;fontSize=15;entryX=0;entryY=0.5;entryDx=0;entryDy=0;" edge="1" parent="1" target="w3lT0G3AqvzyWayd9pQj-60">
          <mxGeometry width="50" height="50" relative="1" as="geometry">
            <mxPoint x="50" y="960" as="sourcePoint" />
            <mxPoint x="100" y="910" as="targetPoint" />
          </mxGeometry>
        </mxCell>
        <mxCell id="w3lT0G3AqvzyWayd9pQj-59" value="" style="endArrow=classic;html=1;rounded=0;fontSize=15;entryX=1;entryY=0.5;entryDx=0;entryDy=0;" edge="1" parent="1" target="w3lT0G3AqvzyWayd9pQj-60">
          <mxGeometry width="50" height="50" relative="1" as="geometry">
            <mxPoint x="360" y="960" as="sourcePoint" />
            <mxPoint x="290" y="960" as="targetPoint" />
          </mxGeometry>
        </mxCell>
        <mxCell id="w3lT0G3AqvzyWayd9pQj-60" value="&lt;font style=&quot;font-size: 18px;&quot;&gt;Logout&lt;/font&gt;" style="rounded=0;whiteSpace=wrap;html=1;fontSize=12;" vertex="1" parent="1">
          <mxGeometry x="120" y="940" width="160" height="40" as="geometry" />
        </mxCell>
        <mxCell id="w3lT0G3AqvzyWayd9pQj-61" value="" style="endArrow=classic;html=1;rounded=0;fontSize=15;exitX=0.5;exitY=1;exitDx=0;exitDy=0;" edge="1" parent="1" source="w3lT0G3AqvzyWayd9pQj-60">
          <mxGeometry width="50" height="50" relative="1" as="geometry">
            <mxPoint x="230" y="1050" as="sourcePoint" />
            <mxPoint x="200" y="1020" as="targetPoint" />
          </mxGeometry>
        </mxCell>
        <mxCell id="w3lT0G3AqvzyWayd9pQj-62" value="Stop" style="rounded=1;whiteSpace=wrap;html=1;fontSize=15;" vertex="1" parent="1">
          <mxGeometry x="180" y="1020" width="100" height="40" as="geometry" />
        </mxCell>
        <mxCell id="w3lT0G3AqvzyWayd9pQj-63" value="Yes" style="text;html=1;align=center;verticalAlign=middle;resizable=0;points=[];autosize=1;strokeColor=none;fillColor=none;fontSize=16;" vertex="1" parent="1">
          <mxGeometry x="410" y="330" width="40" height="20" as="geometry" />
        </mxCell>
      </root>
    </mxGraphModel>
  </diagram>
</mxfile>
